<?xml version="1.0" encoding="UTF-8"?>
<svg version="1.1" xmlns="http://www.w3.org/2000/svg" width="512" height="512">
<path d="M0 0 C168.96 0 337.92 0 512 0 C512 168.96 512 337.92 512 512 C343.04 512 174.08 512 0 512 C0 343.04 0 174.08 0 0 Z " fill="#FCFCFC" transform="translate(0,0)"/>
<path d="M0 0 C1.70869263 0.68594238 1.70869263 0.68594238 3.4519043 1.38574219 C5.27008667 2.11905762 5.27008667 2.11905762 7.125 2.8671875 C25.73684017 10.28276993 44.53686991 16.29380101 63.85839844 21.57421875 C72.23787905 23.86519417 80.60940567 26.18521059 88.98248291 28.49945068 C92.05019793 29.34653256 95.11854323 30.19129667 98.18701172 31.03564453 C107.58946238 33.626952 116.97469187 36.25890177 126.32432556 39.03504944 C132.58622444 40.890746 138.87768879 42.62023669 145.1875 44.3046875 C146.85437866 44.75183105 146.85437866 44.75183105 148.55493164 45.20800781 C155.84034947 47.15445711 163.13786037 49.03693652 170.46484375 50.8203125 C173.60611062 51.61149604 176.72945358 52.44489288 179.85375977 53.29980469 C180.84167007 53.56992371 181.82958038 53.84004272 182.84742737 54.11834717 C183.59902634 54.32421448 184.35062531 54.53008179 185.125 54.7421875 C185.19570078 72.08662573 185.24828238 89.43101774 185.28043652 106.77556801 C185.29577616 114.8325246 185.31661194 122.88939067 185.35131836 130.94628906 C185.38162322 137.98486605 185.40066811 145.02337737 185.40726548 152.0620178 C185.41110984 155.77424295 185.41985849 159.48628059 185.44219017 163.19844437 C185.84243875 232.50931652 165.63193555 295.66346516 116.0625 345.86328125 C113.09972998 348.83960879 110.11326767 351.79148186 107.125 354.7421875 C106.2896875 355.58136719 105.454375 356.42054688 104.59375 357.28515625 C76.24506029 385.4992794 40.31794114 407.06988196 4.25 423.9296875 C2.72511963 424.65285156 2.72511963 424.65285156 1.16943359 425.390625 C0.20859863 425.83019531 -0.75223633 426.26976562 -1.7421875 426.72265625 C-2.58894043 427.11348389 -3.43569336 427.50431152 -4.30810547 427.90698242 C-10.29810351 429.85598216 -14.57908913 428.34313863 -20.01171875 425.62890625 C-20.68415619 425.30384598 -21.35659363 424.97878571 -22.04940796 424.64387512 C-24.22714558 423.58559172 -26.3951568 422.50908123 -28.5625 421.4296875 C-30.06892048 420.68748263 -31.57534956 419.94529523 -33.08178711 419.203125 C-57.42486066 407.14555809 -80.76427708 392.90947481 -101.875 375.7421875 C-102.39964844 375.31760254 -102.92429687 374.89301758 -103.46484375 374.45556641 C-106.61724809 371.90321505 -109.7533774 369.33207078 -112.875 366.7421875 C-111.23010648 362.87622306 -108.64437366 359.89825376 -105.9375 356.7421875 C-103.15815683 353.47332392 -100.40282289 350.21272981 -97.875 346.7421875 C-93.93514472 348.43344245 -90.80408973 351.07037602 -87.5 353.7421875 C-81.02747283 358.89559241 -74.4227352 363.80118251 -67.62841797 368.52148438 C-66.47803395 369.32236436 -65.33108308 370.12820321 -64.18798828 370.93945312 C-52.36900865 379.31451437 -39.68430147 386.01867391 -26.875 392.7421875 C-26.02470215 393.19529297 -25.1744043 393.64839844 -24.29833984 394.11523438 C-22.08068429 395.29616439 -19.85527897 396.4603175 -17.625 397.6171875 C-16.98828369 397.9570166 -16.35156738 398.2968457 -15.69555664 398.64697266 C-12.48769151 400.34520504 -12.48769151 400.34520504 -8.96142578 400.44482422 C24.71490677 389.10378922 57.74893393 364.03690224 84.125 340.7421875 C84.66721191 340.26458984 85.20942383 339.78699219 85.76806641 339.29492188 C99.2932071 327.32225372 111.08075889 313.76487855 121.125 298.7421875 C121.80046875 297.7521875 122.4759375 296.7621875 123.171875 295.7421875 C150.5841408 254.52658218 159.10681991 210.97853925 159.44140625 162.33984375 C159.46201585 159.80537102 159.48301325 157.27090141 159.50437927 154.73643494 C159.55360918 148.78707386 159.59897857 142.83769159 159.64240164 136.88828605 C159.69213586 130.1044836 159.74691734 123.32072467 159.80208123 116.53696454 C159.9152583 102.60541297 160.02223206 88.67381947 160.125 74.7421875 C158.13250415 74.50276756 156.14000829 74.26334763 154.14751244 74.02392769 C151.62211336 73.67213435 149.23698371 73.06891057 146.7890625 72.359375 C145.8189624 72.08230713 144.8488623 71.80523926 143.84936523 71.51977539 C142.82657471 71.22192139 141.80378418 70.92406738 140.75 70.6171875 C138.54592481 69.98704912 136.34148447 69.35818679 134.13671875 68.73046875 C132.99638184 68.4051416 131.85604492 68.07981445 130.68115234 67.74462891 C124.65560737 66.04609206 118.60952752 64.42477124 112.5625 62.8046875 C110.84957764 62.34521729 110.84957764 62.34521729 109.10205078 61.87646484 C106.44332394 61.16394735 103.78432962 60.45245134 101.125 59.7421875 C101.125 59.0821875 101.125 58.4221875 101.125 57.7421875 C99.97257812 57.78988281 98.82015625 57.83757812 97.6328125 57.88671875 C93.15344583 57.87594633 89.23008629 56.82267246 85 55.4296875 C83.2495647 54.87874888 81.49816909 54.33085681 79.74609375 53.78515625 C78.73272949 53.46853027 77.71936523 53.1519043 76.67529297 52.82568359 C70.00430186 50.7897973 63.29316696 48.89084743 56.58898926 46.96768188 C33.97564826 40.47414471 33.97564826 40.47414471 23.75 37.2421875 C23.05769287 37.02369141 22.36538574 36.80519531 21.65209961 36.58007812 C13.75803876 34.04180777 6.08782119 30.95476902 -1.58203125 27.81640625 C-3.3387088 27.10579952 -5.10645134 26.42271199 -6.875 25.7421875 C-7.56207031 25.46246094 -8.24914062 25.18273437 -8.95703125 24.89453125 C-12.03090777 24.65037405 -14.10177879 26.04584589 -16.8125 27.4296875 C-22.32027365 30.10012321 -27.73149884 32.10026766 -33.609375 33.78515625 C-36.85184263 34.73540095 -40.04454869 35.78445147 -43.24658203 36.86108398 C-71.9046705 46.46790558 -71.9046705 46.46790558 -86.09765625 49.78515625 C-90.58920657 50.92313953 -94.9689929 52.31356776 -99.375 53.7421875 C-105.84052154 55.83466066 -112.30156226 57.68550947 -118.90649414 59.2800293 C-123.7358365 60.44754295 -128.52770274 61.71633504 -133.3125 63.0546875 C-134.03896729 63.25755371 -134.76543457 63.46041992 -135.51391602 63.66943359 C-140.08663806 64.95090501 -144.65484653 66.24801698 -149.22265625 67.546875 C-150.32359619 67.85842529 -151.42453613 68.16997559 -152.55883789 68.4909668 C-154.71393484 69.10101964 -156.86812579 69.71428543 -159.02124023 70.33129883 C-160.02485596 70.61513428 -161.02847168 70.89896973 -162.0625 71.19140625 C-162.94292969 71.44237061 -163.82335937 71.69333496 -164.73046875 71.9519043 C-167.50405468 72.64896157 -170.26701819 73.23656597 -173.0715332 73.7915802 C-173.97128372 73.97007413 -174.87103424 74.14856806 -175.79804993 74.33247089 C-176.48344345 74.46767737 -177.16883698 74.60288385 -177.875 74.7421875 C-177.8610686 90.55676028 -177.81824874 106.37099017 -177.74290943 122.18537521 C-177.7085541 129.53165616 -177.68294329 136.87775524 -177.67944336 144.22412109 C-177.67636171 150.64242813 -177.65532204 157.06040884 -177.61447543 163.47859025 C-177.59351462 166.86338734 -177.58303297 170.24733979 -177.58884621 173.63225555 C-177.63749388 210.62128892 -170.33540778 248.05293346 -151.02734375 280.078125 C-149.875 282.7421875 -149.875 282.7421875 -149.8984375 285.3125 C-151.18597685 288.5158979 -152.938345 290.01420538 -155.5625 292.2421875 C-156.91601562 293.39847656 -156.91601562 293.39847656 -158.296875 294.578125 C-159.14765625 295.29226563 -159.9984375 296.00640625 -160.875 296.7421875 C-161.49890625 297.31195313 -162.1228125 297.88171875 -162.765625 298.46875 C-164.3125 299.8671875 -164.3125 299.8671875 -166.875 301.7421875 C-170.9255768 300.39199523 -171.91133684 297.86265083 -173.875 294.3046875 C-174.26163818 293.60585449 -174.64827637 292.90702148 -175.04663086 292.18701172 C-187.1935805 269.56057706 -196.66082824 244.13620525 -200.875 218.7421875 C-201.06835938 217.65357422 -201.06835938 217.65357422 -201.265625 216.54296875 C-201.81173523 212.77049679 -201.91589674 208.99887422 -201.9296875 205.19140625 C-201.93415894 203.95922363 -201.93415894 203.95922363 -201.9387207 202.70214844 C-201.93695259 199.04852199 -201.91047043 195.39564178 -201.875 191.7421875 C-202.535 191.7421875 -203.195 191.7421875 -203.875 191.7421875 C-203.875 146.5321875 -203.875 101.3221875 -203.875 54.7421875 C-191.995 51.7721875 -180.115 48.8021875 -167.875 45.7421875 C-160.85486011 43.79214864 -153.85664645 41.81784848 -146.875 39.7421875 C-142.83454024 38.55055952 -138.79258486 37.36408446 -134.75 36.1796875 C-133.74251709 35.88392822 -132.73503418 35.58816895 -131.69702148 35.28344727 C-124.60038918 33.21227515 -117.47480822 31.29034456 -110.31713867 29.44287109 C-104.96832642 28.05450722 -99.70175109 26.48305177 -94.43359375 24.8125 C-91.74350937 24.00340766 -89.06457244 23.25397919 -86.34765625 22.546875 C-74.95421126 19.57681703 -63.7352232 16.19803133 -52.5625 12.4921875 C-51.86060547 12.25946136 -51.15871094 12.02673523 -50.43554688 11.78695679 C-39.61110338 8.17668249 -29.00413556 4.18498767 -18.52612305 -0.34863281 C-17.11327026 -0.94562988 -17.11327026 -0.94562988 -15.671875 -1.5546875 C-14.86073242 -1.90885742 -14.04958984 -2.26302734 -13.21386719 -2.62792969 C-8.48060775 -3.90264883 -4.37955165 -1.77675513 0 0 Z " fill="#2D9C72" transform="translate(258.875,35.2578125)"/>
<path d="M0 0 C0.78632813 0.25265625 1.57265625 0.5053125 2.3828125 0.765625 C8.47888155 2.76731932 14.08576881 5.45716382 19.75 8.4375 C20.45898438 8.80891113 21.16796875 9.18032227 21.8984375 9.56298828 C26.54141734 12.05728574 30.76746616 14.85883942 35 18 C34.43263362 21.6508793 33.10048851 23.20742782 30.40234375 25.671875 C29.68369141 26.33574219 28.96503906 26.99960938 28.22460938 27.68359375 C27.46986328 28.36550781 26.71511719 29.04742187 25.9375 29.75 C24.79958008 30.79607422 24.79958008 30.79607422 23.63867188 31.86328125 C21.76577219 33.58305077 19.88616736 35.29481089 18 37 C13.12556492 35.53616036 8.85775997 33.47349978 4.375 31.125 C-7.92804894 24.83542198 -20.46264776 20.57640815 -34.375 20.8125 C-35.2107959 20.8232959 -36.0465918 20.8340918 -36.90771484 20.84521484 C-38.54992988 20.87232463 -40.19205447 20.90589528 -41.83398438 20.94677734 C-43.58167195 20.98972097 -45.3299451 21.00843874 -47.078125 21.01953125 C-67.68391426 21.87283847 -89.99133024 34.96023555 -103.75 49.75 C-104.86788046 51.13956786 -105.94660983 52.56092922 -107 54 C-107.3810791 54.5151416 -107.7621582 55.0302832 -108.15478516 55.56103516 C-121.93735251 74.42668536 -129.89923178 97.75251479 -126.68652344 121.29736328 C-122.75989988 145.91659003 -111.98419718 167.2846324 -92.1875 182.8125 C-78.39110321 192.59018043 -62.22915558 200.6744491 -45 201 C-43.741875 201.02707031 -42.48375 201.05414063 -41.1875 201.08203125 C-29.71159384 201.22548008 -19.48051388 200.58763415 -8.5625 196.8125 C-7.64162598 196.49788818 -6.72075195 196.18327637 -5.77197266 195.85913086 C5.45719239 191.91909037 14.59409027 186.25008113 24 179 C24.62519531 178.54238281 25.25039063 178.08476562 25.89453125 177.61328125 C40.11463863 166.52359563 47.5786947 148.948337 52 132 C52.32097656 130.79537109 52.32097656 130.79537109 52.6484375 129.56640625 C53.56452398 125.62988969 54.04211767 122.02619885 53.8828125 117.98828125 C53.58072937 106.01456139 53.58072937 106.01456139 57.671875 101.70703125 C60.40144529 99.27406505 63.33895397 97.17627644 66.37011719 95.13720703 C68.64981308 93.54661035 70.65241499 91.70114901 72.6875 89.8125 C75.76346604 87 75.76346604 87 78 87 C78.13277344 87.96421875 78.26554687 88.9284375 78.40234375 89.921875 C78.57894531 91.18515625 78.75554687 92.4484375 78.9375 93.75 C79.11152344 95.00296875 79.28554688 96.2559375 79.46484375 97.546875 C79.8973294 100.78062788 79.8973294 100.78062788 80.5546875 103 C86.14254195 128.09632874 74.61569024 155.65713518 61.5625 176.375 C44.97743876 201.8414843 18.75138016 217.13376874 -10 225 C-11.23049072 225.34385742 -12.46098145 225.68771484 -13.72875977 226.04199219 C-17.82299848 227.05623187 -21.81581022 227.32111693 -26.0234375 227.3359375 C-26.76268463 227.34440704 -27.50193176 227.35287659 -28.26358032 227.36160278 C-30.63428966 227.38122729 -33.00422447 227.38147229 -35.375 227.375 C-36.59002197 227.37318726 -36.59002197 227.37318726 -37.82958984 227.37133789 C-49.63065044 227.32338512 -60.77805916 226.99429476 -72 223 C-73.21961426 222.57340088 -73.21961426 222.57340088 -74.46386719 222.13818359 C-84.07324496 218.69706005 -92.88592386 214.6935713 -101.5859375 209.36328125 C-105.01021278 207.42950767 -107.06096618 206.67844622 -111 207 C-114.08333333 208.91666667 -114.08333333 208.91666667 -116 212 C-115.96777344 212.94101562 -115.93554688 213.88203125 -115.90234375 214.8515625 C-116.02617888 218.84400707 -117.1549846 220.20926247 -119.625 223.3125 C-120.21800903 224.06684326 -120.21800903 224.06684326 -120.82299805 224.83642578 C-122.19824058 226.57206773 -123.59733885 228.28645155 -125 230 C-125.53028809 230.65500488 -126.06057617 231.31000977 -126.60693359 231.98486328 C-133.64215837 240.67040142 -140.84125781 249.21167311 -148.140625 257.67578125 C-150.4733367 260.38175839 -152.78529714 263.10434841 -155.08764648 265.83618164 C-156.89987793 267.98601453 -158.71831079 270.13055061 -160.53759766 272.27441406 C-161.55984129 273.48062742 -162.58019738 274.68844184 -163.59912109 275.89746094 C-183.02639642 298.9135046 -183.02639642 298.9135046 -196.76171875 300.2734375 C-205.13806748 300.57718236 -211.80778977 299.1120923 -218.3125 293.6875 C-225.28054654 287.05192487 -227.35786498 280.88623767 -228.375 271.5625 C-226.88959974 257.4511975 -216.54096476 249.38391892 -206.63671875 240.48388672 C-204.97204946 238.9746594 -203.32734146 237.44630185 -201.6875 235.91015625 C-196.14372849 230.71991244 -190.56429324 225.71673187 -184.5703125 221.04296875 C-182.1603637 219.12746233 -179.81893114 217.14683289 -177.48706055 215.13745117 C-172.02812502 210.43911245 -166.44322149 205.95558493 -160.6875 201.625 C-160.04216309 201.13741211 -159.39682617 200.64982422 -158.73193359 200.14746094 C-146.77326727 191.24044302 -146.77326727 191.24044302 -141.3125 190.5 C-137.0875911 189.8622779 -135.79129081 188.11029548 -133 185 C-132.34 185 -131.68 185 -131 185 C-133.53273922 179.82493188 -136.14816017 174.72442461 -138.95996094 169.69433594 C-154.59513376 141.40421572 -157.7701468 108.35221789 -149.26855469 77.33105469 C-139.97462406 47.0877861 -119.31220595 22.4997525 -91.4375 7.6875 C-84.79700544 4.25421338 -78.1998501 1.0888454 -71 -1 C-70.0409375 -1.28359375 -69.081875 -1.5671875 -68.09375 -1.859375 C-47.65761769 -7.44244207 -19.92992636 -7.97197055 0 0 Z " fill="#229268" transform="translate(286,128)"/>
<path d="M0 0 C0.99 0.99 0.99 0.99 2 2 C1.0409375 3.60875 1.0409375 3.60875 0.0625 5.25 C-1.40601273 7.80822182 -2.52854542 10.05340886 -3 13 C-3.66 13 -4.32 13 -5 13 C-5.04125 13.78375 -5.0825 14.5675 -5.125 15.375 C-7.53484129 25.35862819 -15.33262102 33.72022806 -21.875 41.375 C-24.15361651 43.87564378 -24.15361651 43.87564378 -25 47 C-25.66 47 -26.32 47 -27 47 C-27.3403125 47.804375 -27.3403125 47.804375 -27.6875 48.625 C-29 51 -29 51 -31.625 53.9375 C-34.28961852 56.66416163 -34.28961852 56.66416163 -33.81640625 59.33203125 C-34.09009439 63.30924397 -36.54526033 65.16168576 -39.3125 67.75 C-39.85430908 68.27368164 -40.39611816 68.79736328 -40.9543457 69.33691406 C-45.26019815 73.44297496 -49.78538124 77.24337128 -54.44921875 80.9375 C-56.7406764 82.79031721 -58.86168403 84.72555885 -61 86.75 C-68.33395981 93.33746747 -76.80901351 98.55639314 -85 104 C-85.71220703 104.47872559 -86.42441406 104.95745117 -87.15820312 105.45068359 C-98.50505266 113.07214676 -110.26584941 119.87326042 -122.23339844 126.47070312 C-124.85401204 127.9193021 -127.46255452 129.38780283 -130.0703125 130.859375 C-131.58778228 131.6992901 -133.10596498 132.53791903 -134.625 133.375 C-135.30498047 133.76252441 -135.98496094 134.15004883 -136.68554688 134.54931641 C-140.67904664 136.70991783 -142.67165068 137.21621694 -147 136 C-148.67924143 135.30047126 -150.33400367 134.54032342 -151.96484375 133.734375 C-153.39594482 133.02740479 -153.39594482 133.02740479 -154.85595703 132.30615234 C-155.87286621 131.79262207 -156.88977539 131.2790918 -157.9375 130.75 C-158.99565918 130.21713379 -160.05381836 129.68426758 -161.14404297 129.13525391 C-177.19900224 120.94414316 -192.60217669 111.84994721 -207 101 C-208.36280202 99.98633456 -209.72610755 98.9733458 -211.08984375 97.9609375 C-218.12453242 92.72429123 -225.11446923 87.43191872 -232 82 C-231.01 81.505 -231.01 81.505 -230 81 C-229.3217055 79.33803165 -228.6573793 77.67035166 -228 76 C-226.84914583 74.10228666 -225.65976036 72.22752823 -224.4375 70.375 C-222.56250053 67.52936671 -221.0790587 65.23717611 -220 62 C-216.33976428 63.32392367 -213.43474851 64.94603392 -210.29296875 67.234375 C-178.35093824 90.68536786 -178.35093824 90.68536786 -141.52734375 100.80078125 C-137.75091822 99.94345319 -134.17008501 98.82471956 -130.5625 97.4375 C-129.52706055 97.04268433 -129.52706055 97.04268433 -128.47070312 96.63989258 C-120.71510854 93.60498005 -113.34996484 89.90024404 -106 86 C-105.39849121 85.68788574 -104.79698242 85.37577148 -104.17724609 85.05419922 C-85.13849118 75.1324483 -66.61599491 62.57919346 -50 49 C-49.08089844 48.27039063 -48.16179687 47.54078125 -47.21484375 46.7890625 C-41.60755525 42.29376793 -36.25908662 37.58508725 -31.05834961 32.62915039 C-28.52672744 30.24886345 -26.22654333 28.33485835 -23 27 C-23 26.34 -23 25.68 -23 25 C-21.63671875 23.73046875 -21.63671875 23.73046875 -19.6875 22.1875 C-12.1355688 15.79326235 -6.13657071 7.71372673 0 0 Z " fill="#CFE6DD" transform="translate(393,300)"/>
<path d="M0 0 C4.62608826 2.48491119 9.06256793 7.09183874 11 12 C10.2661067 20.524453 1.49220886 26.62865188 -4.47558594 31.99121094 C-10.76564298 37.70157312 -16.78058374 43.66317145 -22.76560211 49.69043732 C-24.63134262 51.56921447 -26.5004285 53.44460988 -28.37030029 55.3192749 C-32.33306927 59.29333083 -36.29183518 63.271359 -40.25 67.25 C-44.858012 71.88175743 -49.46772865 76.51179298 -54.08168793 81.13762665 C-55.90935499 82.97170153 -57.73394943 84.80879405 -59.55841064 86.64605713 C-64.6663097 91.77613273 -69.7907781 96.8187343 -75.30435181 101.51806641 C-78.0294196 103.89967452 -80.50922321 106.49878206 -83.00390625 109.1171875 C-84.08453449 110.22989745 -85.16593714 111.34185575 -86.24804688 112.453125 C-87.91641885 114.17105258 -89.57957842 115.89295097 -91.23022461 117.62792969 C-92.84928624 119.32588273 -94.48698735 121.00386616 -96.12890625 122.6796875 C-96.6145253 123.19941132 -97.10014435 123.71913513 -97.60047913 124.25460815 C-100.13990654 126.81374864 -102.07082332 128.02229714 -105.52685547 129.11035156 C-110.07049769 128.96598728 -111.25529486 127.74282071 -114.44140625 124.5546875 C-114.94329971 124.06346405 -115.44519318 123.5722406 -115.96229553 123.06613159 C-117.06593121 121.98013595 -118.16024697 120.88460977 -119.24639893 119.78112793 C-121.07593922 117.92286874 -122.92931412 116.09119613 -124.78857422 114.26269531 C-128.86432812 110.2425962 -132.90219003 106.18562918 -136.9375 102.125 C-138.33374642 100.72372119 -139.73022958 99.32267824 -141.12695312 97.921875 C-143.67846136 95.36228737 -146.22863072 92.80138322 -148.77709961 90.23876953 C-151.51331205 87.48774287 -154.25499632 84.74225837 -157 82 C-159 80 -159 80 -159.0625 77.375 C-157.18396811 71.4078987 -153.05873463 67.38649475 -147.9375 63.9375 C-144.27378105 62.768228 -142.70180677 62.90578298 -139 64 C-136.30151459 65.94576772 -133.98479877 68.22430396 -131.625 70.5625 C-130.96234131 71.20002197 -130.29968262 71.83754395 -129.61694336 72.49438477 C-125.61515263 76.35857247 -121.6859208 80.29557444 -117.76953125 84.24609375 C-115.79553953 86.20265508 -113.79594516 88.11862813 -111.75 90 C-111.12609375 90.5775 -110.5021875 91.155 -109.859375 91.75 C-107.82014876 93.37194319 -107.82014876 93.37194319 -104 93 C-101.81986665 91.35717228 -101.81986665 91.35717228 -99.734375 89.08984375 C-98.92613281 88.26419922 -98.11789062 87.43855469 -97.28515625 86.58789062 C-96.44855469 85.71326172 -95.61195313 84.83863281 -94.75 83.9375 C-89.67466149 78.69882642 -84.62039256 73.58537189 -79.07666016 68.84301758 C-74.80226563 65.04953012 -70.83252368 60.93399483 -66.8125 56.875 C-65.93658203 55.99457031 -65.06066406 55.11414063 -64.15820312 54.20703125 C-62.5298301 52.57001637 -60.90249577 50.93196704 -59.27661133 49.29248047 C-58.52532959 48.53596191 -57.77404785 47.77944336 -57 47 C-56.20134521 46.18966309 -55.40269043 45.37932617 -54.57983398 44.54443359 C-52.33968241 42.3350213 -50.04927318 40.20353909 -47.71429443 38.09527588 C-42.09293049 33.0106919 -36.72898835 27.73734479 -31.484375 22.265625 C-30.20074723 20.93728119 -28.91689182 19.60915732 -27.6328125 18.28125 C-25.67071564 16.25088048 -23.71686725 14.21477898 -21.78222656 12.15820312 C-19.87034796 10.13117404 -17.93086601 8.13436553 -15.984375 6.140625 C-15.4153949 5.52205627 -14.84641479 4.90348755 -14.26019287 4.26617432 C-9.86173452 -0.16308579 -6.17448056 -1.09171046 0 0 Z " fill="#33A676" transform="translate(356,158)"/>
<path d="M0 0 C0.99 0.66 1.98 1.32 3 2 C-17.87628888 24.15879127 -45.8683978 39.91638558 -72.265625 54.48681641 C-74.87247554 55.92942888 -77.46772373 57.39128823 -80.0625 58.85546875 C-81.58256515 59.69670206 -83.10335192 60.53663334 -84.625 61.375 C-85.3051416 61.76260498 -85.9852832 62.15020996 -86.68603516 62.54956055 C-89.67124234 64.1646771 -91.53413643 65.0430217 -94.9609375 64.7265625 C-95.63382813 64.48679687 -96.30671875 64.24703125 -97 64 C-96.67 62.35 -96.34 60.7 -96 59 C-95.34 59 -94.68 59 -94 59 C-93.67 58.34 -93.34 57.68 -93 57 C-90.77872122 56.09288092 -88.52147941 55.27286851 -86.25 54.5 C-79.49693562 52.18304904 -73.92581721 49.98853081 -68 46 C-66.71472428 45.28013527 -65.42229394 44.57297373 -64.125 43.875 C-54.9081717 38.82510752 -46.09376552 33.02314943 -37.29125977 27.2902832 C-31.36090048 23.43235696 -25.49378187 19.82612484 -18.9140625 17.15234375 C-16.54969189 15.72889614 -16.15616599 14.46433788 -15 12 C-10.52025119 7.39667191 -5.27778988 3.62848054 0 0 Z " fill="#E6EFEA" transform="translate(343,372)"/>
<path d="M0 0 C1.98 0 3.96 0 6 0 C5.51244075 0.7137123 5.0248815 1.4274246 4.52254772 2.16276455 C2.8638695 5.25367631 2.62888708 6.92747105 2.63923645 10.39576721 C2.63511246 11.46545746 2.63098846 12.53514771 2.6267395 13.63725281 C2.63752533 14.80053604 2.64831116 15.96381927 2.65942383 17.16235352 C2.65898575 18.39536194 2.65854767 19.62837036 2.65809631 20.89874268 C2.65982629 24.27279146 2.67485818 27.64628721 2.69581819 31.02023816 C2.71460803 34.55375352 2.71633779 38.08727673 2.71989441 41.62083435 C2.72921415 48.3131327 2.75382146 55.00528381 2.78394288 61.69751734 C2.81743065 69.30130126 2.8339684 76.90509199 2.84902918 84.50893128 C2.87910401 99.51882404 2.9284859 114.52857658 2.99162006 129.53836918 C2.9989523 131.69223545 3 133.84612125 3 136 C2.01 136.33 1.02 136.66 0 137 C0 91.79 0 46.58 0 0 Z " fill="#51A084" transform="translate(55,90)"/>
<path d="M0 0 C2.27183059 0.43229165 4.54241052 0.87115658 6.8125 1.3125 C8.07707031 1.55613281 9.34164063 1.79976563 10.64453125 2.05078125 C14.06103744 2.75401779 17.40964276 3.63266716 20.7722168 4.55932617 C21.753853 4.82919846 22.7354892 5.09907074 23.74687195 5.37712097 C24.49040421 5.58267105 25.23393646 5.78822113 26 6 C26.04689882 23.58624076 26.08207591 41.17246176 26.10362434 58.75875092 C26.1138994 66.92593996 26.12788683 75.09308995 26.15087891 83.26025391 C26.17092909 90.3858593 26.18374377 97.5114364 26.18817699 104.63706923 C26.19076486 108.4035744 26.19676698 112.16999865 26.21146011 115.93647766 C26.32472602 146.08987104 26.32472602 146.08987104 24 159 C23.67 159 23.34 159 23 159 C22.88435417 153.53894696 23.04309043 148.16499149 23.49560547 142.72094727 C24.32695267 131.34201024 24.14392772 119.92933291 24.1328125 108.52734375 C24.13348765 106.07125336 24.13445942 103.61516304 24.13571167 101.15907288 C24.13717845 96.03467161 24.13506687 90.91028788 24.13037109 85.78588867 C24.12467143 79.25111719 24.12796086 72.71638677 24.13394356 66.18161678 C24.13757422 61.11727088 24.13639916 56.05293454 24.13381577 50.98858833 C24.13315357 48.58028725 24.13394988 46.17198526 24.13629532 43.76368523 C24.15996585 25.85908911 24.15996585 25.85908911 23 8 C21.515 7.61908203 21.515 7.61908203 20 7.23046875 C13.18832581 5.46182957 6.52808442 3.66452425 0 1 C0 0.67 0 0.34 0 0 Z " fill="#57BD94" transform="translate(418,84)"/>
<path d="M0 0 C0.66 0.33 1.32 0.66 2 1 C2.07062226 15.85763909 2.12324514 30.71526501 2.15543652 45.57303715 C2.17079231 52.47444897 2.19166056 59.37575548 2.22631836 66.27709961 C2.25984053 72.95559037 2.27692687 79.63395 2.28463173 86.31252861 C2.29011214 88.84179833 2.30081069 91.3710631 2.31719017 93.90028572 C2.39462292 106.3696781 2.20870143 118.66425702 0.66918945 131.05249023 C0.5526234 132.01741677 0.43605734 132.98234331 0.31595898 133.97651005 C0.19153581 134.86025523 0.06711264 135.74400042 -0.06108093 136.65452576 C-0.16918941 137.42519599 -0.27729788 138.19586622 -0.38868237 138.9898901 C-1.1099945 141.36167945 -2.13397542 142.40962233 -4 144 C-3.86722656 143.01902344 -3.73445313 142.03804687 -3.59765625 141.02734375 C-3.41902364 139.66409487 -3.24065287 138.30081166 -3.0625 136.9375 C-2.97548828 136.30005859 -2.88847656 135.66261719 -2.79882812 135.00585938 C-0.73137339 119.00222824 -0.79540783 102.92353476 -0.68359375 86.81640625 C-0.66298368 84.30435374 -0.64198626 81.79230438 -0.62062073 79.28025818 C-0.57139489 73.38402076 -0.52602433 67.48776392 -0.48259836 61.59148115 C-0.42796286 54.20613673 -0.36720396 46.82084464 -0.30664062 39.43554688 C-0.19957165 26.29040035 -0.09784587 13.14521825 0 0 Z " fill="#63BC91" transform="translate(419,111)"/>
<path d="M0 0 C0.495 0.99 0.495 0.99 1 2 C0.0625 4.625 0.0625 4.625 -1 7 C-0.34 7.33 0.32 7.66 1 8 C-8.41214732 25.36454031 -19.72830346 40.35412234 -33 55 C-33.73828125 53.328125 -33.73828125 53.328125 -34 51 C-32.41796875 48.421875 -32.41796875 48.421875 -30.1875 45.75 C-29.45917969 44.85796875 -28.73085938 43.9659375 -27.98046875 43.046875 C-27.32691406 42.37140625 -26.67335938 41.6959375 -26 41 C-25.34 41 -24.68 41 -24 41 C-23.92007812 40.44441406 -23.84015625 39.88882813 -23.7578125 39.31640625 C-22.74370767 36.21659098 -21.0110877 34.3958111 -18.875 31.9375 C-12.45461387 24.2698414 -7.07055131 16.57289525 -4 7 C-3.34 7 -2.68 7 -2 7 C-1.855625 6.030625 -1.71125 5.06125 -1.5625 4.0625 C-1 1 -1 1 0 0 Z " fill="#E9F0EB" transform="translate(392,306)"/>
<path d="M0 0 C0.33 0 0.66 0 1 0 C1.14695313 0.75539062 1.29390625 1.51078125 1.4453125 2.2890625 C3.03325784 10.08277124 4.92836365 17.7595058 7 25.4375 C7.2489502 26.37223145 7.49790039 27.30696289 7.75439453 28.27001953 C9.15438253 33.38863968 10.80421023 38.15451044 13 43 C13.52067771 44.277376 14.03472863 45.55746833 14.54296875 46.83984375 C17.80590854 54.99273432 21.31164081 62.92530867 25.3347168 70.73413086 C26.72111464 73.42529129 28.01429247 76.03961209 29.04296875 78.890625 C29.35878906 79.58671875 29.67460938 80.2828125 30 81 C31.485 81.495 31.485 81.495 33 82 C31.68 82 30.36 82 29 82 C15.88545642 60.56338802 -0.44600577 29.88238644 -0.0625 4.1875 C-0.05347656 3.39730469 -0.04445312 2.60710937 -0.03515625 1.79296875 C-0.02355469 1.20128906 -0.01195312 0.60960937 0 0 Z " fill="#0E6947" transform="translate(60,254)"/>
<path d="M0 0 C2.27183059 0.43229165 4.54241052 0.87115658 6.8125 1.3125 C8.07707031 1.55613281 9.34164063 1.79976563 10.64453125 2.05078125 C15.80838125 3.17617636 20.90116515 4.60940868 26 6 C26 22.83 26 39.66 26 57 C25.67 57 25.34 57 25 57 C24.05920519 49.18804307 23.94901574 41.48294905 24 33.625 C24.05566303 25.02367013 23.83155849 16.5680223 23 8 C21.515 7.61908203 21.515 7.61908203 20 7.23046875 C13.18832581 5.46182957 6.52808442 3.66452425 0 1 C0 0.67 0 0.34 0 0 Z " fill="#72CCA5" transform="translate(418,84)"/>
<path d="M0 0 C0.33 0 0.66 0 1 0 C1.09796875 0.7734375 1.1959375 1.546875 1.296875 2.34375 C2.43366899 10.26210815 3.72828144 17.27751893 9.8125 22.875 C13.32730244 25.21820163 15.91629235 26.10158432 20 27 C20 27.66 20 28.32 20 29 C25.61 29 31.22 29 37 29 C37.33 28.34 37.66 27.68 38 27 C38 27.99 38 28.98 38 30 C29.57758148 31.87838111 20.80538808 32.05994545 13 28 C6.98278806 23.760114 1.39351813 18.49015992 0 11 C-0.06688591 9.08438746 -0.08531719 7.16664408 -0.0625 5.25 C-0.05347656 4.26515625 -0.04445312 3.2803125 -0.03515625 2.265625 C-0.02355469 1.51796875 -0.01195312 0.7703125 0 0 Z " fill="#126948" transform="translate(59,397)"/>
<path d="M0 0 C0.66 0.33 1.32 0.66 2 1 C2.19995234 9.35356423 2.13074367 17.56950392 1.125 25.875 C1.00729248 26.89980469 1.00729248 26.89980469 0.88720703 27.9453125 C0.25140694 32.74859306 0.25140694 32.74859306 -2 35 C-2.02726927 32.64575325 -2.04696719 30.29183038 -2.0625 27.9375 C-2.07990234 25.97103516 -2.07990234 25.97103516 -2.09765625 23.96484375 C-2.00541025 20.21965598 -1.55086184 16.69988304 -1 13 C-0.96046207 11.2504467 -0.95598877 9.49944649 -1 7.75 C-1.07568317 4.70375233 -0.9793414 2.93802421 0 0 Z " fill="#55BC93" transform="translate(365,232)"/>
<path d="M0 0 C1.65 0 3.3 0 5 0 C4.51104248 0.65701904 4.02208496 1.31403809 3.51831055 1.9909668 C1.61104362 5.77084537 1.62058927 9.0145724 1.70703125 13.14453125 C1.71127609 13.91431808 1.71552094 14.68410492 1.71989441 15.47721863 C1.73661403 17.92267646 1.7742523 20.36729357 1.8125 22.8125 C1.82755559 24.47589951 1.84124246 26.13931201 1.85351562 27.80273438 C1.88649535 31.86881082 1.93822994 35.93426313 2 40 C-0.55781522 36.16327717 -0.25306456 33.05464013 -0.1953125 28.61328125 C-0.1924826 27.79627243 -0.18965271 26.97926361 -0.18673706 26.13749695 C-0.17554541 23.52901541 -0.1504429 20.9208777 -0.125 18.3125 C-0.11496888 16.54362475 -0.10584326 14.77474412 -0.09765625 13.00585938 C-0.07560942 8.67044051 -0.0410867 4.33527855 0 0 Z " fill="#117F57" transform="translate(56,90)"/>
<path d="M0 0 C3.77713088 2.51808726 4.67184356 5.38921735 6.3125 9.4375 C8.82410517 15.46548773 11.59237113 21.09733589 15.03125 26.66796875 C16.23610343 29.5683619 16.01207975 31.05942998 15 34 C12.9375 35.3125 12.9375 35.3125 11 36 C11 35.34 11 34.68 11 34 C11.66 34 12.32 34 13 34 C12.48189352 29.09927256 11.47294773 25.32233256 9.27734375 20.91796875 C8.73916016 19.82162109 8.20097656 18.72527344 7.64648438 17.59570312 C7.08251953 16.47099609 6.51855469 15.34628906 5.9375 14.1875 C4.81831856 11.93262252 3.70226171 9.67619057 2.58984375 7.41796875 C2.09347412 6.42563232 1.59710449 5.4332959 1.08569336 4.41088867 C0 2 0 2 0 0 Z " fill="#1F795D" transform="translate(93,289)"/>
<path d="M0 0 C0.33 0 0.66 0 1 0 C1.98485459 7.80999679 2.12039367 15.51036789 2.0625 23.375 C2.05798828 24.53644531 2.05347656 25.69789063 2.04882812 26.89453125 C2.04016462 29.03565519 2.02943344 31.17677259 2.01586914 33.31787109 C2.00269079 35.54521469 2 37.77261742 2 40 C1.01 40.495 1.01 40.495 0 41 C0 27.47 0 13.94 0 0 Z " fill="#07724A" transform="translate(56,186)"/>
<path d="M0 0 C2 2 2 2 2.125 3.99609375 C2.08375 4.80175781 2.0425 5.60742188 2 6.4375 C1.87014851 11.40071245 2.63362521 15.82944148 3.7578125 20.65234375 C4 23 4 23 2 26 C0.25324198 20.00325593 -0.25682842 14.72635779 -0.125 8.5 C-0.11597656 7.67757812 -0.10695312 6.85515625 -0.09765625 6.0078125 C-0.07436865 4.00507917 -0.03850959 2.00249846 0 0 Z " fill="#137253" transform="translate(57,227)"/>
<path d="M0 0 C4.455 0.99 4.455 0.99 9 2 C9 2.66 9 3.32 9 4 C14.61 4 20.22 4 26 4 C26.33 3.34 26.66 2.68 27 2 C27 2.99 27 3.98 27 5 C18.68591037 6.85422143 9.70743643 7.11627924 2 3 C1.34 2.01 0.68 1.02 0 0 Z " fill="#15714F" transform="translate(70,422)"/>
<path d="M0 0 C0.33 0.66 0.66 1.32 1 2 C0.0625 4.625 0.0625 4.625 -1 7 C-0.34 7.33 0.32 7.66 1 8 C0.21516341 9.48280196 -0.57809334 10.9611498 -1.375 12.4375 C-1.81585938 13.26121094 -2.25671875 14.08492188 -2.7109375 14.93359375 C-4 17 -4 17 -6 18 C-5 10.57142857 -5 10.57142857 -4 7 C-3.34 7 -2.68 7 -2 7 C-1.855625 6.030625 -1.71125 5.06125 -1.5625 4.0625 C-1 1 -1 1 0 0 Z " fill="#EAF4EE" transform="translate(392,306)"/>
<path d="M0 0 C-1.54167927 1.69584719 -2.79860754 2.90266031 -4.875 3.90625 C-7.14966541 5.07703367 -8.83736894 6.43305714 -10.75 8.125 C-11.36359375 8.66382813 -11.9771875 9.20265625 -12.609375 9.7578125 C-13.06828125 10.16773438 -13.5271875 10.57765625 -14 11 C-10.92846169 4.58389776 -7.62852516 -0.41235271 0 0 Z " fill="#23945E" transform="translate(213,222)"/>
<path d="M0 0 C0.99 0.33 1.98 0.66 3 1 C1.9171875 1.7115625 1.9171875 1.7115625 0.8125 2.4375 C-2.86645178 5.78943384 -4.78644815 9.59173505 -7 14 C-7.66 14 -8.32 14 -9 14 C-7.64002446 7.95566426 -4.14348206 4.36505864 0 0 Z " fill="#137556" transform="translate(69,378)"/>
<path d="M0 0 C0.33 0 0.66 0 1 0 C1.55846957 2.24588836 2.09621983 4.49693668 2.625 6.75 C2.92664062 8.00296875 3.22828125 9.2559375 3.5390625 10.546875 C4.00108464 14.00812564 3.96282811 15.20402902 2 18 C0.3722167 11.85221129 -0.20190089 6.35987804 0 0 Z " fill="#16714E" transform="translate(60,254)"/>
<path d="M0 0 C1.32 0.33 2.64 0.66 4 1 C0.04 4.465 0.04 4.465 -4 8 C-4.66 7.67 -5.32 7.34 -6 7 C-4.02 4.69 -2.04 2.38 0 0 Z " fill="#EDF1EC" transform="translate(334,380)"/>
<path d="M0 0 C0.68359375 1.765625 0.68359375 1.765625 1 4 C-0.21484375 5.921875 -0.21484375 5.921875 -1.9375 7.75 C-2.50339844 8.36359375 -3.06929688 8.9771875 -3.65234375 9.609375 C-4.31943359 10.29773438 -4.31943359 10.29773438 -5 11 C-5.68359375 9.234375 -5.68359375 9.234375 -6 7 C-4.78515625 5.078125 -4.78515625 5.078125 -3.0625 3.25 C-2.49660156 2.63640625 -1.93070312 2.0228125 -1.34765625 1.390625 C-0.90292969 0.93171875 -0.45820313 0.4728125 0 0 Z " fill="#E2E9E4" transform="translate(364,350)"/>
<path d="M0 0 C2 3 2 3 1.625 5.1875 C1.41875 5.785625 1.2125 6.38375 1 7 C0.34 7 -0.32 7 -1 7 C-1.33 9.64 -1.66 12.28 -2 15 C-2.66 15 -3.32 15 -4 15 C-3.52229477 13.06213915 -3.04278429 11.12472326 -2.5625 9.1875 C-2.29566406 8.10855469 -2.02882813 7.02960938 -1.75390625 5.91796875 C-1.23922588 3.9259157 -0.65062825 1.95188476 0 0 Z " fill="#5DBB93" transform="translate(411,268)"/>
<path d="M0 0 C1.65 0 3.3 0 5 0 C4.525625 0.61875 4.05125 1.2375 3.5625 1.875 C1.41947162 6.16105676 1.26657436 10.26600709 1 15 C0.67 15 0.34 15 0 15 C0 10.05 0 5.1 0 0 Z " fill="#097A51" transform="translate(56,90)"/>
<path d="M0 0 C-2.31483907 2.31483907 -3.89022523 2.7608956 -7 3.6875 C-7.886875 3.95949219 -8.77375 4.23148437 -9.6875 4.51171875 C-12 5 -12 5 -14 4 C-14 3.34 -14 2.68 -14 2 C-4.58997722 -0.29612756 -4.58997722 -0.29612756 0 0 Z " fill="#1A8D61" transform="translate(121,74)"/>
<path d="M0 0 C0.66 0 1.32 0 2 0 C2.66 4.62 3.32 9.24 4 14 C3.01 14.495 3.01 14.495 2 15 C0.58365167 12.16730334 0.6536995 9.52533562 0.4375 6.375 C0.35371094 5.18648437 0.26992188 3.99796875 0.18359375 2.7734375 C0.12300781 1.85820312 0.06242187 0.94296875 0 0 Z " fill="#5FBE93" transform="translate(362,215)"/>
<path d="M0 0 C0.66 0 1.32 0 2 0 C0.59928507 5.29158974 -2.85487245 7.77478044 -7 11 C-6.67 9.68 -6.34 8.36 -6 7 C-5.34 7 -4.68 7 -4 7 C-3.67 6.01 -3.34 5.02 -3 4 C-2.34 4 -1.68 4 -1 4 C-0.67 2.68 -0.34 1.36 0 0 Z " fill="#147F5A" transform="translate(139,380)"/>
<path d="M0 0 C3.16115776 1.36983503 3.9927092 1.9890638 6 5 C5.01 5 4.02 5 3 5 C2.34 4.34 1.68 3.68 1 3 C-0.65 4.32 -2.3 5.64 -4 7 C-2.92598892 4.08482708 -2.22189824 2.22189824 0 0 Z " fill="#197153" transform="translate(161,382)"/>
<path d="M0 0 C0.99 0.33 1.98 0.66 3 1 C1.7391988 2.03319813 0.46596742 3.05124379 -0.8125 4.0625 C-1.87404297 4.91521484 -1.87404297 4.91521484 -2.95703125 5.78515625 C-3.63121094 6.18605469 -4.30539062 6.58695312 -5 7 C-5.99 6.67 -6.98 6.34 -8 6 C-7.34 6 -6.68 6 -6 6 C-6 5.34 -6 4.68 -6 4 C-3 2 -3 2 0 2 C0 1.34 0 0.68 0 0 Z " fill="#238F66" transform="translate(324,421)"/>
<path d="M0 0 C0.66 0.66 1.32 1.32 2 2 C-0.31 4.31 -2.62 6.62 -5 9 C-5.66 8.67 -6.32 8.34 -7 8 C-4.69 5.36 -2.38 2.72 0 0 Z " fill="#43AD84" transform="translate(374,343)"/>
<path d="M0 0 C0.33 0.66 0.66 1.32 1 2 C0.0625 4.625 0.0625 4.625 -1 7 C-0.34 7.33 0.32 7.66 1 8 C0.01 9.485 0.01 9.485 -1 11 C-1.66 11 -2.32 11 -3 11 C-2.25 3.375 -2.25 3.375 0 0 Z " fill="#F2F7F5" transform="translate(392,306)"/>
<path d="M0 0 C0.66 0.33 1.32 0.66 2 1 C-0.64 3.64 -3.28 6.28 -6 9 C-6 5.06368636 -4.57142871 3.87394974 -2 1 C-1.34 0.67 -0.68 0.34 0 0 Z " fill="#40AB81" transform="translate(309,196)"/>
<path d="M0 0 C0.33 0 0.66 0 1 0 C1.39012425 1.76756294 1.7616098 3.53924783 2.125 5.3125 C2.33382812 6.29863281 2.54265625 7.28476563 2.7578125 8.30078125 C3 11 3 11 1 14 C-0.04976964 10.85069107 -0.10131595 8.61185544 -0.0625 5.3125 C-0.05347656 4.31863281 -0.04445312 3.32476562 -0.03515625 2.30078125 C-0.02355469 1.54152344 -0.01195312 0.78226563 0 0 Z " fill="#066342" transform="translate(58,239)"/>
<path d="M0 0 C-0.33 0.99 -0.66 1.98 -1 3 C-2.65 2.67 -4.3 2.34 -6 2 C-6 1.34 -6 0.68 -6 0 C-3.50907189 -1.24546405 -2.58919267 -0.7767578 0 0 Z " fill="#DEEBE5" transform="translate(252,434)"/>
<path d="M0 0 C0 3 0 3 -1.0625 5.0625 C-1.5265625 6.0215625 -1.5265625 6.0215625 -2 7 C-1.67 7.66 -1.34 8.32 -1 9 C-2.32 8.34 -3.64 7.68 -5 7 C-3.70700306 4.11562221 -2.34058637 2.12780579 0 0 Z " fill="#116949" transform="translate(151,395)"/>
<path d="M0 0 C-2.55068845 2.35448165 -3.71017358 2.98327924 -7.25 3.1875 C-8.1575 3.125625 -9.065 3.06375 -10 3 C-10 2.34 -10 1.68 -10 1 C-6.59437148 0.22157062 -3.49234244 -0.09978121 0 0 Z " fill="#1E8E65" transform="translate(132,71)"/>
<path d="M0 0 C0.6875 1.6875 0.6875 1.6875 1 4 C-0.3125 6.75 -0.3125 6.75 -2 9 C-2.66 9 -3.32 9 -4 9 C-2.80100302 5.9168649 -1.52299523 2.93720508 0 0 Z " fill="#4CB189" transform="translate(396,307)"/>
<path d="M0 0 C0.66 0.33 1.32 0.66 2 1 C-0.31 3.31 -2.62 5.62 -5 8 C-5.66 7.34 -6.32 6.68 -7 6 C-4.69 4.02 -2.38 2.04 0 0 Z " fill="#4EB383" transform="translate(348,227)"/>
</svg>
